{"title":"Jennifer Lopez - Same Girl [Music Video] 1080p [Sbyky]","uid":9652375,"size":82448090,"categoryP":"video","categoryS":"music_videos","magnet":"?xt=urn:btih:5b5c7cc7ebcff3fdbb2f7f7d8565adae5ede5a27&amp;dn=Jennifer+Lopez+-+Same+Girl+%5BMusic+Video%5D+1080p+%5BSbyky%5D&amp;tr=udp%3A%2F%2Ftracker.openbittorrent.com%3A80&amp;tr=udp%3A%2F%2Fopen.demonii.com%3A1337&amp;tr=udp%3A%2F%2Ftracker.coppersurfer.tk%3A6969&amp;tr=udp%3A%2F%2Fexodus.desync.com%3A6969","seeders":3,"leechers":0,"uploader":"Sbyky","files":1,"time":1393098904,"description":"\n\nGeneral\nComplete name                            : Jennifer Lopez - Same Girl [Music Video] 1080p [Sbyky].MP4\nFormat                                   : MPEG-4\nFormat profile                           : Base Media\nCodec ID                                 : isom\nFile size                                : 78.6 MiB\nDuration                                 : 3mn 32s\nOverall bit rate mode                    : Variable\nOverall bit rate                         : 3 110 Kbps\nEncoded date                             : UTC 2014-02-07 11:30:08\nTagged date                              : UTC 2014-02-07 11:30:08\n\nVideo\nID                                       : 1\nFormat                                   : AVC\nFormat/Info                              : Advanced Video Codec\nFormat profile                           : &lt;a class=&quot;__cf_email__&quot; href=&quot;/cdn-cgi/l/email-protection&quot; data-cfemail=&quot;97dffef0ffd7dba3b9a7&quot;&gt;[email&amp;#160;protected]&lt;/a&gt;&lt;script cf-hash='f9e31' type=&quot;text/javascript&quot;&gt;\n/* &lt;![CDATA[ */!function(){try{var t=&quot;currentScript&quot;in document?document.currentScript:function(){for(var t=document.getElementsByTagName(&quot;script&quot;),e=t.length;e--;)if(t[e].getAttribute(&quot;cf-hash&quot;))return t[e]}();if(t&amp;&amp;t.previousSibling){var e,r,n,i,c=t.previousSibling,a=c.getAttribute(&quot;data-cfemail&quot;);if(a){for(e=&quot;&quot;,r=parseInt(a.substr(0,2),16),n=2;a.length-n;n+=2)i=parseInt(a.substr(n,2),16)^r,e+=String.fromCharCode(i);e=document.createTextNode(e),c.parentNode.replaceChild(e,c)}}}catch(u){}}();/* ]]&gt; */&lt;/script&gt;\nFormat settings, CABAC                   : Yes\nFormat settings, ReFrames                : 3 frames\nCodec ID                                 : avc1\nCodec ID/Info                            : Advanced Video Coding\nDuration                                 : 3mn 31s\nDuration_LastFrame                       : -40ms\nBit rate                                 : 2 982 Kbps\nWidth                                    : 1 920 pixels\nHeight                                   : 1 080 pixels\nDisplay aspect ratio                     : 16:9\nFrame rate mode                          : Constant\nFrame rate                               : 23.976 fps\nColor space                              : YUV\nChroma subsampling                       : 4:2:0\nBit depth                                : 8 bits\nScan type                                : Progressive\nBits/(Pixel*Frame)                       : 0.060\nStream size                              : 75.4 MiB (96%)\nEncoded date                             : UTC 2014-02-07 11:30:08\nTagged date                              : UTC 2014-02-07 11:30:08\n\nAudio\nID                                       : 2\nFormat                                   : AAC\nFormat/Info                              : Advanced Audio Codec\nFormat profile                           : LC\nCodec ID                                 : 40\nDuration                                 : 3mn 32s\nBit rate mode                            : Variable\nBit rate                                 : 126 Kbps\nChannel(s)                               : 2 channels\nChannel positions                        : Front: L R\nSampling rate                            : 44.1 KHz\nCompression mode                         : Lossy\nStream size                              : 3.17 MiB (4%)\nEncoded date                             : UTC 2014-02-07 11:26:13\nTagged date                              : UTC 2014-02-07 11:26:13\n\nShared By Sbyky\n","torrent":{"xt":"urn:btih:5b5c7cc7ebcff3fdbb2f7f7d8565adae5ede5a27","amp;dn":"Jennifer+Lopez+-+Same+Girl+%5BMusic+Video%5D+1080p+%5BSbyky%5D","amp;tr":["udp%3A%2F%2Ftracker.openbittorrent.com%3A80","udp%3A%2F%2Fopen.demonii.com%3A1337","udp%3A%2F%2Ftracker.coppersurfer.tk%3A6969","udp%3A%2F%2Fexodus.desync.com%3A6969"],"infoHash":"5b5c7cc7ebcff3fdbb2f7f7d8565adae5ede5a27","infoHashBuffer":{"type":"Buffer","data":[91,92,124,199,235,207,243,253,187,47,127,125,133,101,173,174,94,222,90,39]},"announce":[],"urlList":[]}}